<svg width="528.858" height="83.789" viewBox="0 0 528.858 83.789" xmlns="http://www.w3.org/2000/svg"><g id="svgGroup" stroke-linecap="round" fill-rule="evenodd" font-size="9pt" stroke="#c1bd96" stroke-width="0.25mm" fill="#c1bd96" style="stroke:#c1bd96;stroke-width:0.25mm;fill:#c1bd96"><path d="M 319.483 70.117 L 329.444 60.01 Q 330.811 63.379 333.203 66.235 A 28.77 28.77 0 0 0 338.097 70.883 A 26.804 26.804 0 0 0 338.452 71.143 A 26.438 26.438 0 0 0 343.524 74.018 A 24.275 24.275 0 0 0 344.385 74.365 Q 347.461 75.537 350.196 75.537 A 39.8 39.8 0 0 0 354.257 75.337 A 33.469 33.469 0 0 0 356.25 75.073 A 19.559 19.559 0 0 0 358.822 74.481 A 14.508 14.508 0 0 0 361.182 73.535 A 9.156 9.156 0 0 0 363.357 72.01 A 8.024 8.024 0 0 0 364.478 70.679 A 6.806 6.806 0 0 0 365.461 68.316 Q 365.661 67.405 365.673 66.352 A 11.9 11.9 0 0 0 365.674 66.211 A 7.576 7.576 0 0 0 365.485 64.48 A 5.766 5.766 0 0 0 364.746 62.695 Q 363.819 61.23 362.329 60.181 A 14.739 14.739 0 0 0 360.085 58.887 A 17.585 17.585 0 0 0 358.936 58.398 Q 357.032 57.666 355.054 57.153 Q 353.076 56.641 351.172 56.226 Q 349.268 55.811 347.803 55.371 A 399.271 399.271 0 0 1 343.344 54.057 A 453.594 453.594 0 0 1 341.797 53.589 Q 338.672 52.637 335.645 51.416 Q 332.617 50.195 329.907 48.608 Q 327.198 47.021 325.147 44.849 Q 323.096 42.676 321.875 39.819 A 14.882 14.882 0 0 1 320.856 36.126 A 19.703 19.703 0 0 1 320.655 33.252 A 30.727 30.727 0 0 1 320.896 29.306 A 22.423 22.423 0 0 1 321.753 25.366 A 20.062 20.062 0 0 1 323.466 21.439 A 17.08 17.08 0 0 1 324.854 19.385 A 18.82 18.82 0 0 1 329.59 15.112 A 25.839 25.839 0 0 1 335.189 12.463 A 28.732 28.732 0 0 1 335.596 12.329 A 37.586 37.586 0 0 1 341.186 11.01 A 42.519 42.519 0 0 1 342.554 10.815 Q 346.24 10.352 350.098 10.352 A 49.351 49.351 0 0 1 355.432 10.627 A 37.954 37.954 0 0 1 359.693 11.328 Q 364.014 12.305 367.676 14.111 Q 371.338 15.918 374.39 18.433 Q 377.442 20.947 380.127 24.023 L 370.166 34.131 A 22.972 22.972 0 0 0 367.048 27.961 A 21.767 21.767 0 0 0 366.919 27.783 A 25.94 25.94 0 0 0 363.394 23.85 A 23.329 23.329 0 0 0 362.305 22.925 A 21.378 21.378 0 0 0 358.359 20.407 A 19.119 19.119 0 0 0 356.983 19.8 A 16.276 16.276 0 0 0 354.081 18.943 A 13.062 13.062 0 0 0 351.612 18.701 A 42.751 42.751 0 0 0 347.991 18.848 A 33.586 33.586 0 0 0 345.41 19.165 A 19.71 19.71 0 0 0 343.009 19.706 Q 341.66 20.105 340.552 20.679 A 8.379 8.379 0 0 0 338.395 22.254 A 7.547 7.547 0 0 0 337.403 23.511 Q 336.31 25.244 336.28 27.786 A 12.219 12.219 0 0 0 336.28 27.93 A 8.89 8.89 0 0 0 336.417 29.531 Q 336.598 30.522 337.02 31.329 A 5.519 5.519 0 0 0 337.11 31.494 A 7.914 7.914 0 0 0 339.331 33.984 Q 340.723 35.01 342.481 35.669 A 36.45 36.45 0 0 0 346.118 36.816 A 67.142 67.142 0 0 0 349.829 37.671 A 46.068 46.068 0 0 1 351.581 38.055 A 35.729 35.729 0 0 1 353.174 38.477 A 1418.151 1418.151 0 0 1 356.177 39.331 A 1638.942 1638.942 0 0 1 359.326 40.234 A 67.853 67.853 0 0 1 365.674 42.407 A 47.819 47.819 0 0 1 371.631 45.264 A 22.049 22.049 0 0 1 376.578 49.062 A 20.805 20.805 0 0 1 376.612 49.097 Q 378.76 51.318 380.03 54.224 A 14.933 14.933 0 0 1 381.105 58.082 A 19.589 19.589 0 0 1 381.299 60.889 Q 381.299 65.354 380.19 68.78 A 18.783 18.783 0 0 1 380.152 68.896 A 19.859 19.859 0 0 1 378.355 72.868 A 17.009 17.009 0 0 1 376.929 74.902 A 18.898 18.898 0 0 1 372.022 79.15 A 27.421 27.421 0 0 1 366.054 81.82 A 30.33 30.33 0 0 1 365.845 81.885 Q 362.5 82.91 358.765 83.35 A 64.933 64.933 0 0 1 351.172 83.789 A 59.852 59.852 0 0 1 345.706 83.55 A 47.641 47.641 0 0 1 341.797 83.032 Q 337.5 82.275 333.716 80.64 Q 329.932 79.004 326.441 76.416 A 47.197 47.197 0 0 1 322.303 72.947 A 59.702 59.702 0 0 1 319.483 70.117 Z M 67.871 29.492 L 59.522 33.008 A 25.187 25.187 0 0 0 57.405 28.034 A 23.041 23.041 0 0 0 56.909 27.197 Q 55.274 24.561 53.003 22.681 A 17.286 17.286 0 0 0 47.852 19.751 A 17.507 17.507 0 0 0 43.254 18.769 A 21.007 21.007 0 0 0 41.553 18.701 A 19.543 19.543 0 0 0 37.316 19.145 A 16.638 16.638 0 0 0 34.839 19.897 Q 31.787 21.094 29.37 23.193 Q 26.953 25.293 25.147 28.076 Q 23.34 30.859 22.119 34.009 A 34.209 34.209 0 0 0 20.313 40.527 A 38.644 38.644 0 0 0 19.729 46.716 A 35.603 35.603 0 0 0 19.727 47.119 A 44.365 44.365 0 0 0 20.923 57.324 Q 22.119 62.402 24.732 66.455 A 20.701 20.701 0 0 0 31.494 73.022 Q 35.645 75.537 41.553 75.537 A 16.6 16.6 0 0 0 47.461 74.487 A 18.258 18.258 0 0 0 52.515 71.606 Q 54.785 69.775 56.494 67.285 Q 58.203 64.795 59.229 61.914 L 67.676 65.283 Q 65.821 69.922 62.598 73.413 Q 59.375 76.904 55.249 79.199 Q 51.123 81.494 46.411 82.642 A 40.001 40.001 0 0 1 36.914 83.789 A 38.403 38.403 0 0 1 26.978 82.52 A 36.979 36.979 0 0 1 18.115 78.906 A 35.578 35.578 0 0 1 10.669 73.242 A 35.792 35.792 0 0 1 4.956 65.869 Q 2.588 61.816 1.294 57.056 A 37.72 37.72 0 0 1 0 47.119 A 37.72 37.72 0 0 1 1.294 37.183 Q 2.588 32.422 4.956 28.345 A 35.508 35.508 0 0 1 10.669 20.947 A 35.578 35.578 0 0 1 18.115 15.283 A 36.979 36.979 0 0 1 26.978 11.67 A 38.403 38.403 0 0 1 36.914 10.4 Q 41.895 10.4 46.656 11.572 Q 51.416 12.744 55.518 15.112 Q 59.619 17.48 62.818 21.069 A 26.722 26.722 0 0 1 67.387 28.303 A 30.796 30.796 0 0 1 67.871 29.492 Z M 213.965 39.941 L 206.836 42.773 A 18.008 18.008 0 0 0 204.816 38.417 A 14.383 14.383 0 0 0 201.123 34.521 A 15.229 15.229 0 0 0 194.089 31.804 A 19.856 19.856 0 0 0 191.504 31.641 A 16.465 16.465 0 0 0 188.642 31.879 A 12.677 12.677 0 0 0 186.109 32.593 A 13.307 13.307 0 0 0 181.958 35.205 A 16.035 16.035 0 0 0 178.931 39.062 Q 177.686 41.26 176.905 43.75 A 29.897 29.897 0 0 0 175.782 48.901 Q 175.44 51.563 175.44 54.053 Q 175.44 56.738 175.733 59.473 Q 176.026 62.207 176.734 64.722 Q 177.442 67.236 178.614 69.409 A 14.043 14.043 0 0 0 181.568 73.193 Q 183.35 74.805 185.816 75.732 A 14.042 14.042 0 0 0 188.739 76.47 A 19.15 19.15 0 0 0 191.504 76.66 Q 194.092 76.66 196.436 75.879 Q 198.78 75.098 200.733 73.682 A 16.985 16.985 0 0 0 204.199 70.313 Q 205.713 68.359 206.592 65.967 L 213.77 68.604 A 22.449 22.449 0 0 1 210.8 73.751 A 20.333 20.333 0 0 1 209.497 75.269 A 24.153 24.153 0 0 1 203.467 79.907 Q 200.098 81.738 196.24 82.617 Q 192.383 83.496 188.428 83.496 A 33.085 33.085 0 0 1 179.892 82.422 A 29.638 29.638 0 0 1 176.563 81.323 Q 171.094 79.15 167.115 75.22 A 28.158 28.158 0 0 1 160.889 65.894 A 29.495 29.495 0 0 1 158.75 56.822 A 35.139 35.139 0 0 1 158.643 54.053 A 33.096 33.096 0 0 1 159.511 46.355 A 28.571 28.571 0 0 1 160.865 42.139 A 27.763 27.763 0 0 1 166.796 33.058 A 26.891 26.891 0 0 1 167.041 32.813 A 27.503 27.503 0 0 1 176.125 26.894 A 31.342 31.342 0 0 1 176.465 26.758 A 31.341 31.341 0 0 1 185.636 24.712 A 37.347 37.347 0 0 1 188.428 24.609 A 35.426 35.426 0 0 1 196.436 25.513 A 27.237 27.237 0 0 1 203.687 28.296 Q 207.032 30.176 209.693 33.057 A 21.569 21.569 0 0 1 213.21 38.243 A 25.498 25.498 0 0 1 213.965 39.941 Z M 511.768 32.52 L 511.768 82.373 L 495.215 82.373 L 495.215 32.52 L 484.961 32.52 L 484.961 25.977 L 495.215 25.977 L 495.215 5.225 L 511.768 5.225 L 511.768 25.977 L 528.858 25.977 L 528.858 32.52 L 511.768 32.52 Z M 280.518 25.977 L 280.518 82.373 L 264.014 82.373 L 264.014 75.635 A 19.328 19.328 0 0 1 259.913 79.808 A 17.241 17.241 0 0 1 256.958 81.567 A 20.756 20.756 0 0 1 249.159 83.464 A 24.459 24.459 0 0 1 247.901 83.496 A 30.981 30.981 0 0 1 241.483 82.858 A 24.827 24.827 0 0 1 236.377 81.201 A 25.09 25.09 0 0 1 227.783 74.927 A 27.221 27.221 0 0 1 222.775 66.571 A 31.324 31.324 0 0 1 222.412 65.576 A 34.364 34.364 0 0 1 220.602 55.956 A 39.636 39.636 0 0 1 220.557 54.053 Q 220.557 47.9 222.412 42.529 A 28.127 28.127 0 0 1 226.325 34.986 A 26.041 26.041 0 0 1 227.783 33.179 A 25.09 25.09 0 0 1 236.377 26.904 A 25.67 25.67 0 0 1 243.631 24.881 A 32.608 32.608 0 0 1 247.901 24.609 A 19.706 19.706 0 0 1 254.126 25.586 A 19.801 19.801 0 0 1 259.546 28.345 A 20.135 20.135 0 0 1 263.892 32.642 A 20.632 20.632 0 0 1 266.846 38.232 L 274.17 25.977 L 280.518 25.977 Z M 156.494 30.957 L 147.217 46.338 A 53.039 53.039 0 0 0 146.639 44.535 Q 146.329 43.621 145.958 42.62 A 89.107 89.107 0 0 0 145.703 41.943 A 24.459 24.459 0 0 0 143.408 37.378 A 13.827 13.827 0 0 0 140.431 34.043 A 13.113 13.113 0 0 0 140.137 33.813 A 7.086 7.086 0 0 0 135.742 32.373 A 7.552 7.552 0 0 0 133.6 32.666 A 6.323 6.323 0 0 0 131.763 33.545 Q 130.078 34.717 128.907 36.597 Q 127.735 38.477 126.978 40.845 Q 126.221 43.213 125.806 45.63 Q 125.391 48.047 125.244 50.269 A 79.608 79.608 0 0 0 125.155 51.849 Q 125.119 52.627 125.106 53.313 A 40.371 40.371 0 0 0 125.098 54.102 L 125.098 82.373 L 108.545 82.373 L 108.545 25.977 L 114.893 25.977 L 121.582 39.111 A 38.339 38.339 0 0 1 124.009 34.379 A 34.136 34.136 0 0 1 124.707 33.276 A 21.466 21.466 0 0 1 128.195 29.18 A 19.919 19.919 0 0 1 128.76 28.687 A 17.38 17.38 0 0 1 133.96 25.684 A 17.016 17.016 0 0 1 137.677 24.787 A 22.096 22.096 0 0 1 140.528 24.609 A 27.09 27.09 0 0 1 142.542 24.689 Q 143.571 24.766 144.703 24.917 A 43.487 43.487 0 0 1 144.776 24.927 A 24.738 24.738 0 0 1 149.365 26.001 A 18.747 18.747 0 0 1 153.516 27.979 A 9.84 9.84 0 0 1 155.572 29.714 A 8.65 8.65 0 0 1 156.494 30.957 Z M 480.938 60.092 A 29.309 29.309 0 0 0 481.543 54.053 A 31.605 31.605 0 0 0 481.525 52.974 A 27.931 27.931 0 0 0 480.371 45.825 A 28.839 28.839 0 0 0 477.124 38.672 Q 475.049 35.4 472.119 32.788 Q 469.19 30.176 465.699 28.369 A 33.626 33.626 0 0 0 458.228 25.586 Q 454.248 24.609 450.049 24.609 A 33.891 33.891 0 0 0 441.895 25.586 A 33.73 33.73 0 0 0 434.449 28.369 A 31.056 31.056 0 0 0 428.028 32.788 A 27.81 27.81 0 0 0 423.023 38.672 A 28.839 28.839 0 0 0 419.776 45.825 A 26.414 26.414 0 0 0 419.377 47.297 A 28.867 28.867 0 0 0 418.604 54.053 A 31.605 31.605 0 0 0 418.622 55.132 A 27.931 27.931 0 0 0 419.776 62.28 A 28.839 28.839 0 0 0 423.023 69.434 Q 425.098 72.705 428.028 75.317 Q 430.957 77.93 434.449 79.736 A 33.73 33.73 0 0 0 441.895 82.52 Q 445.85 83.496 450.049 83.496 A 34.191 34.191 0 0 0 458.228 82.52 Q 462.207 81.543 465.699 79.736 A 31.056 31.056 0 0 0 472.119 75.317 A 27.81 27.81 0 0 0 477.124 69.434 A 28.942 28.942 0 0 0 480.371 62.305 A 26 26 0 0 0 480.938 60.092 Z M 408.203 17.139 L 408.203 82.373 L 391.699 82.373 L 391.699 0 L 398.047 0 L 408.203 17.139 Z M 94.727 26.025 L 94.727 82.373 L 78.174 82.373 L 78.174 26.025 L 94.727 26.025 Z M 464.746 54.053 A 46.032 46.032 0 0 0 464.619 50.703 A 54.588 54.588 0 0 0 464.478 49.097 A 35.933 35.933 0 0 0 463.574 43.97 Q 462.94 41.455 461.841 39.136 A 16.385 16.385 0 0 0 459.905 35.986 A 14.691 14.691 0 0 0 459.131 35.083 Q 457.52 33.35 455.274 32.3 A 10.927 10.927 0 0 0 452.348 31.423 A 14.632 14.632 0 0 0 450.049 31.25 A 12.779 12.779 0 0 0 447.376 31.519 A 10.185 10.185 0 0 0 445.02 32.324 A 12.762 12.762 0 0 0 441.187 35.181 Q 439.551 36.963 438.452 39.307 Q 437.354 41.65 436.67 44.165 A 34.086 34.086 0 0 0 435.694 49.243 A 46.081 46.081 0 0 0 435.445 52.25 A 37.404 37.404 0 0 0 435.401 54.053 A 39.292 39.292 0 0 0 435.515 56.984 A 48.361 48.361 0 0 0 435.694 58.862 A 34.806 34.806 0 0 0 436.67 63.965 Q 437.354 66.504 438.452 68.823 A 16.529 16.529 0 0 0 440.885 72.586 A 15.458 15.458 0 0 0 441.187 72.925 A 12.762 12.762 0 0 0 445.02 75.781 A 10.508 10.508 0 0 0 448.259 76.74 A 13.44 13.44 0 0 0 450.049 76.855 A 13.898 13.898 0 0 0 452.767 76.601 A 10.734 10.734 0 0 0 455.225 75.806 A 12.437 12.437 0 0 0 459.107 72.998 A 15.598 15.598 0 0 0 461.783 69.017 A 17.424 17.424 0 0 0 461.817 68.945 Q 462.891 66.65 463.55 64.111 Q 464.209 61.572 464.478 58.984 A 50.255 50.255 0 0 0 464.72 55.541 A 42.96 42.96 0 0 0 464.746 54.053 Z M 263.916 54.053 A 49.251 49.251 0 0 0 263.812 50.916 A 58.011 58.011 0 0 0 263.697 49.414 A 37.317 37.317 0 0 0 262.94 44.58 Q 262.403 42.188 261.45 40.015 A 14.693 14.693 0 0 0 259.102 36.263 A 13.937 13.937 0 0 0 259.009 36.157 Q 257.52 34.473 255.42 33.496 A 10.252 10.252 0 0 0 252.686 32.681 A 13.735 13.735 0 0 0 250.537 32.52 A 13.033 13.033 0 0 0 248.165 32.725 A 9.543 9.543 0 0 0 245.703 33.521 Q 243.653 34.521 242.188 36.206 A 14.704 14.704 0 0 0 239.985 39.613 A 16.708 16.708 0 0 0 239.771 40.088 Q 238.819 42.285 238.282 44.678 A 37.391 37.391 0 0 0 237.525 49.487 A 54.132 54.132 0 0 0 237.336 52.404 A 45.06 45.06 0 0 0 237.305 54.053 A 47.674 47.674 0 0 0 237.391 56.853 A 58.063 58.063 0 0 0 237.525 58.643 A 37.317 37.317 0 0 0 238.282 63.477 Q 238.819 65.869 239.771 68.066 A 15.178 15.178 0 0 0 241.656 71.299 A 13.89 13.89 0 0 0 242.188 71.948 A 10.998 10.998 0 0 0 245.703 74.634 A 9.582 9.582 0 0 0 248.242 75.443 A 13.107 13.107 0 0 0 250.537 75.635 A 10.485 10.485 0 0 0 253.077 75.338 A 8.66 8.66 0 0 0 255.054 74.585 A 11.711 11.711 0 0 0 258.521 71.777 A 16.971 16.971 0 0 0 260.772 68.327 A 19.154 19.154 0 0 0 261.035 67.773 A 29.147 29.147 0 0 0 262.696 63.135 A 35.595 35.595 0 0 0 263.623 58.374 A 41.141 41.141 0 0 0 263.843 56.11 A 30.463 30.463 0 0 0 263.916 54.053 Z M 95.459 12.354 Q 95.459 14.209 94.751 15.869 A 9.045 9.045 0 0 1 92.823 18.75 A 9.045 9.045 0 0 1 89.942 20.679 Q 88.282 21.387 86.426 21.387 Q 84.571 21.387 82.935 20.679 A 9.12 9.12 0 0 1 80.078 18.75 A 9.045 9.045 0 0 1 78.15 15.869 Q 77.442 14.209 77.442 12.354 Q 77.442 10.498 78.15 8.862 A 9.12 9.12 0 0 1 80.078 6.006 A 9.12 9.12 0 0 1 82.935 4.077 Q 84.571 3.369 86.426 3.369 Q 88.282 3.369 89.942 4.077 A 9.045 9.045 0 0 1 92.823 6.006 A 9.12 9.12 0 0 1 94.751 8.862 Q 95.459 10.498 95.459 12.354 Z" vector-effect="non-scaling-stroke"/></g></svg>